<?xml version="1.0" encoding="UTF-8"?>
<svg version="1.1" xmlns="http://www.w3.org/2000/svg" width="60" height="60">
<path d="M0 0 C1.30245593 2.14522154 2.01434368 3.52665842 1.9375 6.0625 C1 8 1 8 -1.25 9.125 C-5.48976364 12.01574793 -7.49578635 16.14811087 -9 21 C-9.17252483 24.01008785 -9.13010936 26.98889764 -9 30 C-7.83726563 29.91621094 -6.67453125 29.83242188 -5.4765625 29.74609375 C5.78786472 29.00555867 16.74846405 29.12622481 28 30 C27.72805906 23.3646411 27.07822275 17.44165224 23 12 C20.76169307 10.02587092 18.55810327 8.5742174 16 7 C16.875 2.25 16.875 2.25 18 0 C23.86567699 0.80589301 27.08460918 3.71600544 31 8 C35.71038128 15.36165303 36.76862709 22.34504842 36 31 C33.58994471 40.06580383 28.97963831 46.1734638 21 51 C14.81885535 54.01869855 6.96070395 54.15371857 0.3984375 52.2421875 C-4.8445804 50.01522003 -8.9718976 47.0281024 -13 43 C-13.62648438 43.433125 -14.25296875 43.86625 -14.8984375 44.3125 C-15.71570312 44.869375 -16.53296875 45.42625 -17.375 46 C-18.18710937 46.556875 -18.99921875 47.11375 -19.8359375 47.6875 C-22 49 -22 49 -24 49 C-24 45.7 -24 42.4 -24 39 C-21.69 37.68 -19.38 36.36 -17 35 C-17.15984375 34.44828125 -17.3196875 33.8965625 -17.484375 33.328125 C-19.49030371 24.27105295 -17.66709568 16.76267086 -13.25 8.875 C-6.30434783 0 -6.30434783 0 0 0 Z M6 36 C6 36.33 6 36.66 6 37 C7.98 37 9.96 37 12 37 C12 36.67 12 36.34 12 36 C10.02 36 8.04 36 6 36 Z M-7 36 C-3.38819321 41.0791033 -0.24507457 43.87045608 6 45 C12.37298606 45.23640134 17.04328191 44.23134471 22 40 C22.99 38.68 23.98 37.36 25 36 C21.37 36 17.74 36 14 36 C14.99 36.33 15.98 36.66 17 37 C17 37.99 17 38.98 17 40 C16.01257813 39.98839844 15.02515625 39.97679687 14.0078125 39.96484375 C12.72648437 39.95582031 11.44515625 39.94679687 10.125 39.9375 C8.21074219 39.92009766 8.21074219 39.92009766 6.2578125 39.90234375 C3.11335348 39.76823431 3.11335348 39.76823431 1 41 C1 39.68 1 38.36 1 37 C1.66 36.67 2.32 36.34 3 36 C-0.3 36 -3.6 36 -7 36 Z " fill="#ECEEED" transform="translate(24,1)"/>
<path d="M0 0 C-0.33 1.98 -0.66 3.96 -1 6 C-5.455 6.495 -5.455 6.495 -10 7 C-10 7.99 -10 8.98 -10 10 C-17.92 10.495 -17.92 10.495 -26 11 C-26 9.68 -26 8.36 -26 7 C-28.97 6.67 -31.94 6.34 -35 6 C-35.33 4.35 -35.66 2.7 -36 1 C-23.8964174 -1.49191406 -12.26420066 -1.40162293 0 0 Z M-21 6 C-21 6.33 -21 6.66 -21 7 C-19.02 7 -17.04 7 -15 7 C-15 6.67 -15 6.34 -15 6 C-16.98 6 -18.96 6 -21 6 Z " fill="#DC794C" transform="translate(51,31)"/>
<path d="M0 0 C1.32 0 2.64 0 4 0 C4 1.98 4 3.96 4 6 C4.61875 6.103125 5.2375 6.20625 5.875 6.3125 C8 7 8 7 10 10 C10.125 13.1875 10.125 13.1875 10 16 C11.32 16.66 12.64 17.32 14 18 C14 18.99 14 19.98 14 21 C12.865625 20.814375 11.73125 20.62875 10.5625 20.4375 C9.386875 20.293125 8.21125 20.14875 7 20 C6.67 20.33 6.34 20.66 6 21 C-1.29411765 21.23529412 -1.29411765 21.23529412 -5 20 C-7.63804589 20.39397335 -7.63804589 20.39397335 -10 21 C-9.625 19.0625 -9.625 19.0625 -9 17 C-8.34 16.67 -7.68 16.34 -7 16 C-6.38833807 14.17696338 -6.38833807 14.17696338 -6 12.0625 C-5.39617423 9.09189285 -5.21308826 8.21308826 -3 6 C-2.01 6 -1.02 6 0 6 C0 4.02 0 2.04 0 0 Z M1 6 C1 6.99 1 7.98 1 9 C1.99 8.67 2.98 8.34 4 8 C4 7.34 4 6.68 4 6 C3.01 6 2.02 6 1 6 Z M0 17 C4 18 4 18 4 18 Z " fill="#827F7F" transform="translate(31,7)"/>
<path d="M0 0 C1.27294922 -0.00128906 2.54589844 -0.00257812 3.85742188 -0.00390625 C4.51782471 -0.00181152 5.17822754 0.0002832 5.85864258 0.00244141 C7.86872945 0.00778544 9.87859199 0.00248979 11.88867188 -0.00390625 C13.8000293 -0.00197266 13.8000293 -0.00197266 15.75 0 C17.49494751 0.00169189 17.49494751 0.00169189 19.27514648 0.00341797 C22.12104778 0.11972051 24.67567976 0.47957301 27.44140625 1.1328125 C27.44140625 2.1228125 27.44140625 3.1128125 27.44140625 4.1328125 C0.71479629 6.12309197 0.71479629 6.12309197 -11.55859375 4.1328125 C-11.22859375 3.1428125 -10.89859375 2.1528125 -10.55859375 1.1328125 C-7.19034692 -0.25150759 -3.59215901 0.00348632 0 0 Z " fill="#5C5C5C" transform="translate(25.55859375,54.8671875)"/>
<path d="M0 0 C11.22 0 22.44 0 34 0 C34 0.66 34 1.32 34 2 C29.545 2.495 29.545 2.495 25 3 C25 3.99 25 4.98 25 6 C17.08 6.495 17.08 6.495 9 7 C9 5.68 9 4.36 9 3 C6.03 2.67 3.06 2.34 0 2 C0 1.34 0 0.68 0 0 Z M14 2 C14 2.33 14 2.66 14 3 C15.98 3 17.96 3 20 3 C20 2.67 20 2.34 20 2 C18.02 2 16.04 2 14 2 Z " fill="#928480" transform="translate(16,35)"/>
<path d="M0 0 C1.9375 0.25 1.9375 0.25 4 1 C6.29013653 4.4352048 6.17842973 5.985331 6 10 C7.32 10.66 8.64 11.32 10 12 C10 12.99 10 13.98 10 15 C6.37 14.67 2.74 14.34 -1 14 C-0.67 13.01 -0.34 12.02 0 11 C0.66 11 1.32 11 2 11 C2.30495485 6.57335436 2.30495485 6.57335436 0.5 2.625 C0.005 2.08875 -0.49 1.5525 -1 1 C-0.67 0.67 -0.34 0.34 0 0 Z " fill="#838081" transform="translate(35,13)"/>
<path d="M0 0 C3 0.25 3 0.25 5 2.25 C4.625 5.375 4.625 5.375 4 8.25 C1.69 8.25 -0.62 8.25 -3 8.25 C-3.66 6.27 -4.32 4.29 -5 2.25 C-3 0.25 -3 0.25 0 0 Z " fill="#DB8057" transform="translate(33,15.75)"/>
<path d="M0 0 C5.61 0.33 11.22 0.66 17 1 C17 1.99 17 2.98 17 4 C11.39 4 5.78 4 0 4 C0 2.68 0 1.36 0 0 Z " fill="#E06D3B" transform="translate(16,31)"/>
<path d="M0 0 C0.96808594 -0.00257812 1.93617187 -0.00515625 2.93359375 -0.0078125 C5.5625 0.125 5.5625 0.125 8.5625 1.125 C8.5625 2.115 8.5625 3.105 8.5625 4.125 C0.6425 4.62 0.6425 4.62 -7.4375 5.125 C-7.4375 3.805 -7.4375 2.485 -7.4375 1.125 C-4.84233479 -0.17258261 -2.89566973 -0.00769102 0 0 Z " fill="#D28D6D" transform="translate(32.4375,36.875)"/>
<path d="M0 0 C1.32 0 2.64 0 4 0 C4 1.98 4 3.96 4 6 C3.01 6 2.02 6 1 6 C1 6.99 1 7.98 1 9 C-0.2065625 9.3403125 -0.2065625 9.3403125 -1.4375 9.6875 C-2.283125 10.120625 -3.12875 10.55375 -4 11 C-4.89386164 13.54775306 -4.89386164 13.54775306 -5 16 C-5.33 16 -5.66 16 -6 16 C-6.22692276 12.67179946 -6.32162419 10.58198664 -4.6875 7.625 C-3 6 -3 6 0 6 C0 4.02 0 2.04 0 0 Z " fill="#878586" transform="translate(31,7)"/>
<path d="M0 0 C0.99386719 0.10183594 1.98773438 0.20367187 3.01171875 0.30859375 C3.77097656 0.39238281 4.53023437 0.47617187 5.3125 0.5625 C5.3125 1.5525 5.3125 2.5425 5.3125 3.5625 C0.6925 3.5625 -3.9275 3.5625 -8.6875 3.5625 C-8.6875 2.5725 -8.6875 1.5825 -8.6875 0.5625 C-5.3763987 -0.54120043 -3.44001051 -0.36423641 0 0 Z " fill="#5D5D5D" transform="translate(47.6875,55.4375)"/>
<path d="M0 0 C2.31 0 4.62 0 7 0 C7.33 1.65 7.66 3.3 8 5 C5.36 4.67 2.72 4.34 0 4 C0 2.68 0 1.36 0 0 Z " fill="#9D9D9D" transform="translate(31,55)"/>
<path d="M0 0 C1.32 0 2.64 0 4 0 C4 1.98 4 3.96 4 6 C2.68 6.33 1.36 6.66 0 7 C0 4.69 0 2.38 0 0 Z " fill="#E18B5D" transform="translate(31,7)"/>
<path d="M0 0 C-0.33 0.99 -0.66 1.98 -1 3 C-3.31 3 -5.62 3 -8 3 C-7.67 2.01 -7.34 1.02 -7 0 C-4.05610218 -1.17755913 -3.10046087 -1.03348696 0 0 Z " fill="#9E9E9E" transform="translate(22,56)"/>
<path d="M0 0 C1.65 0.33 3.3 0.66 5 1 C5 1.99 5 2.98 5 4 C3.35 4 1.7 4 0 4 C0 2.68 0 1.36 0 0 Z " fill="#DE7648" transform="translate(16,31)"/>
<path d="M0 0 C1.98 0 3.96 0 6 0 C6.66 1.32 7.32 2.64 8 4 C5.36 3.67 2.72 3.34 0 3 C0 2.01 0 1.02 0 0 Z " fill="#E2875C" transform="translate(30,16)"/>
<path d="M0 0 C1.9375 0.375 1.9375 0.375 4 1 C4.33 1.66 4.66 2.32 5 3 C4.67 3.66 4.34 4.32 4 5 C2.68 4.34 1.36 3.68 0 3 C0 2.01 0 1.02 0 0 Z " fill="#888485" transform="translate(35,13)"/>
</svg>
