<?xml version="1.0" encoding="UTF-8"?>
<svg version="1.1" xmlns="http://www.w3.org/2000/svg" width="36" height="36">
<path d="M0 0 C0.8125 2.1875 0.8125 2.1875 1 5 C-1.375 7.75 -1.375 7.75 -4 10 C-4.33 10.33 -4.66 10.66 -5 11 C-5 13.31 -5 15.62 -5 18 C1.6 18 8.2 18 15 18 C15.11685097 12.06152107 15.11685097 12.06152107 13 7 C10.98264795 5.65589738 10.98264795 5.65589738 9 5 C9.33 3.35 9.66 1.7 10 0 C15.02898754 1.43685358 16.95677502 3.94236669 20 8 C22.18409926 12.36819852 21.77826464 18.56291986 20.31640625 23.140625 C18.03361421 27.49782142 15.14352866 29.64572235 11 32 C12.98 32.33 14.96 32.66 17 33 C17 33.99 17 34.98 17 36 C9.41 36 1.82 36 -6 36 C-6 35.01 -6 34.02 -6 33 C-4.02 32.505 -4.02 32.505 -2 32 C-4.24743206 29.85164036 -4.24743206 29.85164036 -7 28 C-9.09291157 28.08571661 -9.09291157 28.08571661 -11 29 C-12.33333333 29.33333333 -13.66666667 29.66666667 -15 30 C-15 28.02 -15 26.04 -15 24 C-13.68 23.34 -12.36 22.68 -11 22 C-11.10699219 21.43152344 -11.21398437 20.86304687 -11.32421875 20.27734375 C-12.41723535 13.23737664 -11.15161644 8.99922291 -6.9375 3.125 C-4.43739487 0.38294922 -3.73329109 0 0 0 Z M-3 23 C-2.34 23.66 -1.68 24.32 -1 25 C-1 24.34 -1 23.68 -1 23 C-1.66 23 -2.32 23 -3 23 Z M10 23 C10 23.66 10 24.32 10 25 C10.99 24.67 11.98 24.34 13 24 C12.01 23.67 11.02 23.34 10 23 Z M1 25 C1 25.66 1 26.32 1 27 C3.64 27 6.28 27 9 27 C9.33 26.34 9.66 25.68 10 25 C7.03 25 4.06 25 1 25 Z " fill="#ECEDEC" transform="translate(15,0)"/>
<path d="M0 0 C6.6 0 13.2 0 20 0 C20.33 0.66 20.66 1.32 21 2 C20.01 3.485 20.01 3.485 19 5 C17.68 5 16.36 5 15 5 C15 5.66 15 6.32 15 7 C11.7 7.33 8.4 7.66 5 8 C4.67 7.01 4.34 6.02 4 5 C1.98491642 4.26676204 1.98491642 4.26676204 0 4 C0 2.68 0 1.36 0 0 Z " fill="#DD7749" transform="translate(10,18)"/>
<path d="M0 0 C0.66 0 1.32 0 2 0 C2 0.99 2 1.98 2 3 C2.99 3.33 3.98 3.66 5 4 C5.33 5.98 5.66 7.96 6 10 C6.99 10.33 7.98 10.66 9 11 C9 11.66 9 12.32 9 13 C3.72 13 -1.56 13 -7 13 C-6.67 12.01 -6.34 11.02 -6 10 C-5.34 10 -4.68 10 -4 10 C-4 8.35 -4 6.7 -4 5 C-2.68 4.34 -1.36 3.68 0 3 C0 2.01 0 1.02 0 0 Z " fill="#817F7F" transform="translate(19,4)"/>
<path d="M0 0 C7.59 0 15.18 0 23 0 C23 0.99 23 1.98 23 3 C15.41 3 7.82 3 0 3 C0 2.01 0 1.02 0 0 Z " fill="#7E7E7E" transform="translate(9,33)"/>
<path d="M0 0 C6.6 0 13.2 0 20 0 C19.67 0.66 19.34 1.32 19 2 C17.68 2 16.36 2 15 2 C15 2.66 15 3.32 15 4 C11.7 4.33 8.4 4.66 5 5 C4.67 4.01 4.34 3.02 4 2 C1.98491642 1.26676204 1.98491642 1.26676204 0 1 C0 0.67 0 0.34 0 0 Z " fill="#AF8573" transform="translate(10,21)"/>
<path d="M0 0 C2.125 0.9375 2.125 0.9375 4 2 C4 2.99 4 3.98 4 5 C0.25 6.125 0.25 6.125 -2 5 C-2 3.68 -2 2.36 -2 1 C-1.34 0.67 -0.68 0.34 0 0 Z " fill="#D97F54" transform="translate(19,9)"/>
<path d="M0 0 C2.97 0 5.94 0 9 0 C9 0.99 9 1.98 9 3 C6.36 3 3.72 3 1 3 C0.67 2.01 0.34 1.02 0 0 Z " fill="#5D5D5D" transform="translate(23,33)"/>
<path d="M0 0 C0.66 0 1.32 0 2 0 C2 0.99 2 1.98 2 3 C2.99 3.33 3.98 3.66 5 4 C5.33 5.98 5.66 7.96 6 10 C5.67 9.01 5.34 8.02 5 7 C4.34 6.71125 3.68 6.4225 3 6.125 C1 5 1 5 0.25 2.375 C0.1675 1.59125 0.085 0.8075 0 0 Z " fill="#A57E6B" transform="translate(19,4)"/>
<path d="M0 0 C2.64 0.33 5.28 0.66 8 1 C8 1.66 8 2.32 8 3 C5.03 3 2.06 3 -1 3 C-0.67 2.01 -0.34 1.02 0 0 Z " fill="#E07240" transform="translate(10,18)"/>
</svg>
